<svg width="30" height="30" viewBox="0 0 30 30" fill="none" xmlns="http://www.w3.org/2000/svg">
<path d="M3.12122 30H0.534521C0.238625 30 0 29.6311 0 29.1736V0.82637C0 0.368918 0.238625 0 0.534521 0H3.12122C3.41712 0 3.65574 0.368918 3.65574 0.82637V29.1884C3.65574 29.6311 3.41712 30 3.12122 30ZM1.06904 28.3473H2.5867V1.63798H1.06904V28.3473Z" fill="black"/>
<path d="M26.5352 22.7103H4.15212C3.29306 22.7103 2.58673 21.6331 2.58673 20.2902V17.2356C2.58673 15.9075 3.28352 14.8156 4.15212 14.8156H26.5352C27.3942 14.8156 28.1006 15.8928 28.1006 17.2356V20.2902C28.091 21.6331 27.3942 22.7103 26.5352 22.7103ZM4.15212 16.4683C3.88485 16.4683 3.65577 16.8077 3.65577 17.2356V20.2902C3.65577 20.7034 3.87531 21.0576 4.15212 21.0576H26.5352C26.8025 21.0576 27.0315 20.7182 27.0315 20.2902V17.2356C27.0315 16.8224 26.812 16.4683 26.5352 16.4683H4.15212Z" fill="black"/>
<path d="M27.5565 26.4731H3.12125C2.82536 26.4731 2.58673 26.1042 2.58673 25.6468V21.8839C2.58673 21.4264 2.82536 21.0575 3.12125 21.0575H27.5565C27.8524 21.0575 28.091 21.4264 28.091 21.8839V25.6468C28.091 26.1042 27.8524 26.4731 27.5565 26.4731ZM3.65577 24.8204H27.022V22.7102H3.65577V24.8204Z" fill="black"/>
<path d="M29.4655 30H27.566C27.2701 30 27.0315 29.6311 27.0315 29.1736V19.759C27.0315 19.3015 27.2701 18.9326 27.566 18.9326H29.4655C29.7614 18.9326 30 19.3015 30 19.759V29.1736C30 29.6311 29.7614 30 29.4655 30ZM28.091 28.3473H28.9214V20.5853H28.091V28.3473Z" fill="black"/>
<path d="M6.89151 16.4683C6.43335 16.4683 5.99428 16.0993 5.75566 15.4501L3.03532 7.95375C2.68216 6.99457 2.91124 5.76978 3.53167 5.22379L4.26663 4.58926C4.57207 4.32364 4.91569 4.26462 5.24977 4.41218C5.58385 4.55975 5.86065 4.89914 6.03246 5.35659L8.75279 12.8529C9.10596 13.8121 8.87688 15.0369 8.25645 15.5829L7.52148 16.2174C7.32104 16.3945 7.1015 16.4683 6.89151 16.4683ZM4.8966 5.99113C4.86797 5.99113 4.82979 6.00589 4.78206 6.0354L4.0471 6.66993C3.9421 6.75847 3.89438 6.97982 3.96119 7.14214L6.68152 14.6384C6.73879 14.8008 6.88197 14.8746 6.98696 14.7713L7.72193 14.1367C7.82693 14.0482 7.87465 13.8268 7.80784 13.6645L5.09705 6.1682C5.05887 6.06491 4.99206 6.02064 4.96342 6.00588C4.94433 6.00588 4.92524 5.99113 4.8966 5.99113Z" fill="black"/>
</svg>
