<svg width="30" height="30" viewBox="0 0 30 30" fill="none" xmlns="http://www.w3.org/2000/svg">
<path d="M28.3064 26.3515H24.3301C24.0826 26.3515 23.8829 26.0186 23.8829 25.6059V18.6951C23.8829 15.6991 24.2422 12.783 24.9529 10.0266L25.1764 9.16112C25.6875 7.1771 26.8612 5.8988 28.1547 5.8988C28.7775 5.8988 29.3524 6.41811 29.6958 7.28362C30.0391 8.14914 30.095 9.24101 29.8475 10.1997L29.7756 10.4794C29.1049 13.0626 28.7616 15.7923 28.7616 18.6019L28.7536 25.6059C28.7536 26.0186 28.554 26.3515 28.3064 26.3515ZM24.7772 24.8602H27.8593L27.8673 18.5885C27.8673 15.5659 28.2346 12.6365 28.9612 9.88016L29.033 9.60053C29.1608 9.09454 29.1368 8.5486 28.9532 8.09587C28.7775 7.64314 28.4821 7.37683 28.1547 7.37683C27.2125 7.37683 26.3662 8.30892 25.9989 9.747L25.7753 10.6125C25.1126 13.1824 24.7772 15.8988 24.7772 18.6951V24.8602Z" fill="black"/>
<path d="M24.33 26.3516H5.63C5.38248 26.3516 5.18286 26.0187 5.18286 25.6059V20.7058C5.18286 20.293 5.38248 19.9601 5.63 19.9601H24.33C24.5776 19.9601 24.7772 20.293 24.7772 20.7058V25.6059C24.7772 26.0187 24.5776 26.3516 24.33 26.3516ZM6.07714 24.8602H23.8829V21.4514H6.07714V24.8602Z" fill="black"/>
<path d="M26.9889 30H25.6794C25.4479 30 25.2563 29.7071 25.2323 29.3343L24.9928 25.6858C24.9768 25.4727 25.0167 25.2597 25.1046 25.1132C25.1924 24.9534 25.3122 24.8602 25.4399 24.8602H27.2285C27.3562 24.8602 27.476 24.9534 27.5638 25.1132C27.6517 25.273 27.6916 25.4861 27.6756 25.6858L27.4361 29.3343C27.4121 29.7071 27.2205 30 26.9889 30ZM26.0787 28.5087H26.5897L26.7334 26.3516H25.9429L26.0787 28.5087Z" fill="black"/>
<path d="M5.66994 26.3515H1.69358C1.44606 26.3515 1.24644 26.0186 1.24644 25.6059L1.23846 18.6019C1.23846 15.7923 0.89512 13.0626 0.224409 10.4794L0.152547 10.1997C-0.0949769 9.24101 -0.0390842 8.14914 0.304256 7.28362C0.647596 6.41811 1.22249 5.8988 1.84529 5.8988C3.13881 5.8988 4.31255 7.1771 4.82357 9.16112L5.04714 10.0266C5.75777 12.783 6.11708 15.6991 6.11708 18.6951V25.6059C6.11708 26.0186 5.91746 26.3515 5.66994 26.3515ZM2.14072 24.8602H5.2228V18.6951C5.2228 15.8988 4.88744 13.1824 4.22472 10.6125L4.00115 9.747C3.63385 8.30892 2.7795 7.37683 1.84529 7.37683C1.51792 7.37683 1.23048 7.64314 1.04683 8.09587C0.871166 8.5486 0.839227 9.09454 0.966982 9.60053L1.03884 9.88016C1.75746 12.6498 2.12476 15.5792 2.13274 18.5885L2.14072 24.8602Z" fill="black"/>
<path d="M4.31253 30H3.00305C2.7715 30 2.57987 29.7071 2.55591 29.3343L2.31637 25.6858C2.3004 25.4727 2.34033 25.2597 2.42816 25.1132C2.51599 24.9534 2.63576 24.8602 2.76351 24.8602H4.55207C4.67983 24.8602 4.7996 24.9534 4.88743 25.1132C4.97526 25.273 5.01518 25.4861 4.99921 25.6858L4.75967 29.3343C4.73572 29.7071 4.54409 30 4.31253 30ZM3.40228 28.5087H3.9133L4.05703 26.3516H3.26655L3.40228 28.5087Z" fill="black"/>
<path d="M24.6175 15.2463H5.37451V16.7377H24.6175V15.2463Z" fill="black"/>
<path d="M15.4432 16.1384H14.5489V20.6524H15.4432V16.1384Z" fill="black"/>
<path d="M13.9979 16.7377H6.62009C5.82162 16.7377 5.17487 15.6591 5.17487 14.3276V2.41012C5.17487 1.07856 5.82162 0 6.62009 0H13.9979C14.7964 0 15.4431 1.07856 15.4431 2.41012V14.3276C15.4431 15.6591 14.7964 16.7377 13.9979 16.7377ZM6.62807 1.49135C6.32465 1.49135 6.07713 1.90413 6.07713 2.41012V14.3276C6.07713 14.8336 6.32465 15.2463 6.62807 15.2463H14.0059C14.3093 15.2463 14.5568 14.8336 14.5568 14.3276V2.41012C14.5568 1.90413 14.3093 1.49135 14.0059 1.49135H6.62807Z" fill="black"/>
<path d="M23.3559 16.7377H15.9781C15.1797 16.7377 14.5329 15.6591 14.5329 14.3276V2.41012C14.5329 1.07856 15.1797 0 15.9781 0H23.3559C24.1544 0 24.8012 1.07856 24.8012 2.41012V14.3276C24.8012 15.6591 24.1464 16.7377 23.3559 16.7377ZM15.9781 1.49135C15.6747 1.49135 15.4272 1.90413 15.4272 2.41012V14.3276C15.4272 14.8336 15.6747 15.2463 15.9781 15.2463H23.3559C23.6594 15.2463 23.9069 14.8336 23.9069 14.3276V2.41012C23.9069 1.90413 23.6594 1.49135 23.3559 1.49135H15.9781Z" fill="black"/>
</svg>
