<svg width="30" height="30" viewBox="0 0 30 30" fill="none" xmlns="http://www.w3.org/2000/svg">
<path d="M29.1463 27.4244H0.853655C0.381094 27.4244 0 27.1637 0 26.8405V0.583942C0 0.260689 0.381094 0 0.853655 0H29.1463C29.6189 0 30 0.260689 30 0.583942V26.8509C30 27.1637 29.6189 27.4244 29.1463 27.4244ZM1.70731 26.2565H28.2927V1.16788H1.70731V26.2565Z" fill="black"/>
<path d="M15.8537 0.583923H14.1464V26.8509H15.8537V0.583923Z" fill="black"/>
<path d="M25.8993 13.4098H18.0029C17.5304 13.4098 17.1493 13.1491 17.1493 12.8259V2.66945C17.1493 2.3462 17.5304 2.08551 18.0029 2.08551H25.8993C26.3719 2.08551 26.753 2.3462 26.753 2.66945V12.8259C26.753 13.1491 26.3719 13.4098 25.8993 13.4098ZM18.8566 12.2419H25.0456V3.25339H18.8566V12.2419Z" fill="black"/>
<path d="M23.9148 5.90041L22.7606 5.03979L19.9411 6.8091L21.0952 7.66971L23.9148 5.90041Z" fill="black"/>
<path d="M23.9205 8.71083L22.7664 7.85022L21.1825 8.84413L22.3366 9.70474L23.9205 8.71083Z" fill="black"/>
<path d="M18.8414 15.2137H17.134V17.5078H18.8414V15.2137Z" fill="black"/>
<path d="M12.8811 15.2137H11.1738V17.5078H12.8811V15.2137Z" fill="black"/>
<path d="M29.1463 30H0.853655C0.381094 30 0 29.7393 0 29.4161V26.8405C0 26.5172 0.381094 26.2565 0.853655 26.2565H29.1463C29.6189 26.2565 30 26.5172 30 26.8405V29.4161C30 29.7393 29.6189 30 29.1463 30ZM1.70731 28.8321H28.2927V27.4244H1.70731V28.8321Z" fill="black"/>
</svg>
