<svg width="30" height="30" viewBox="0 0 30 30" fill="none" xmlns="http://www.w3.org/2000/svg">
<path d="M28.7198 0H21.2803C20.5742 0 20 0.7178 20 1.6003V15H11.5H0.5C0.22392 15 0 15.2799 0 15.625V29.375C0 29.7201 0.22392 30 0.5 30H11.5H20.5H29.5C29.7761 30 30 29.7201 30 29.375V18.125V1.6003C30 0.7178 29.4258 0 28.7198 0ZM21 1.6003C21 1.4072 21.1258 1.25 21.2802 1.25H28.7197C28.8742 1.25 28.9999 1.4072 28.9999 1.6003V17.5H21V15.625V1.6003ZM20 26.25H12V21.25H20V26.25ZM12 27.5H20V28.75H12V27.5ZM20 18.125V20H12V16.25H20V18.125ZM1 28.75V16.25H11V28.75H1ZM29 28.75H21V18.75H29V28.75Z" fill="black"/>
<path d="M22.5 13.125C22.7762 13.125 23 12.8451 23 12.5V10C23 9.6549 22.7762 9.375 22.5 9.375C22.2238 9.375 22 9.6549 22 10V12.5C22 12.8451 22.2238 13.125 22.5 13.125Z" fill="black"/>
<path d="M22.5 24.375C22.7762 24.375 23 24.0951 23 23.75V21.25C23 20.9049 22.7762 20.625 22.5 20.625C22.2238 20.625 22 20.9049 22 21.25V23.75C22 24.0951 22.2238 24.375 22.5 24.375Z" fill="black"/>
<path d="M9.5 20H2.5C2.22392 20 2 20.2799 2 20.625V26.875C2 27.2201 2.22392 27.5 2.5 27.5H9.5C9.77608 27.5 10 27.2201 10 26.875V20.625C10 20.2799 9.77608 20 9.5 20ZM9 26.25H3V21.25H9V26.25Z" fill="black"/>
<path d="M14.9983 18.7418L16.9983 18.75C16.999 18.75 16.9995 18.75 17 18.75C17.2754 18.75 17.499 18.4714 17.5 18.1271C17.501 17.782 17.2778 17.5012 17.0017 17.5L15.0017 17.4918C15.001 17.4918 15.0005 17.4918 15 17.4918C14.7246 17.4918 14.501 17.7704 14.5 18.1147C14.499 18.4597 14.7222 18.7406 14.9983 18.7418Z" fill="black"/>
<path d="M14.9983 23.75L16.9983 23.7582C16.999 23.7582 16.9995 23.7582 17 23.7582C17.2754 23.7582 17.499 23.4796 17.5 23.1353C17.501 22.7902 17.2778 22.5094 17.0017 22.5082L15.0017 22.5C15.001 22.5 15.0005 22.5 15 22.5C14.7246 22.5 14.501 22.7786 14.5 23.1229C14.499 23.468 14.7222 23.7488 14.9983 23.75Z" fill="black"/>
<path d="M0.5 10H11.5C11.7761 10 12 9.7201 12 9.375V6.875C12 6.6144 11.8706 6.3812 11.6755 6.2897L8 4.5669V0.625C8 0.2799 7.77608 0 7.5 0H4.5C4.22392 0 4 0.2799 4 0.625V4.5669L0.32448 6.2897C0.12936 6.3813 0 6.6144 0 6.875V9.375C0 9.7201 0.22392 10 0.5 10ZM1 7.3081L4.67552 5.5853C4.87064 5.4938 5 5.2606 5 5V1.25H7V5C7 5.2606 7.12936 5.4938 7.32448 5.5853L11 7.3081V8.75H1V7.3081Z" fill="black"/>
<path d="M3 18.75C3.27614 18.75 3.5 18.4702 3.5 18.125C3.5 17.7798 3.27614 17.5 3 17.5C2.72386 17.5 2.5 17.7798 2.5 18.125C2.5 18.4702 2.72386 18.75 3 18.75Z" fill="black"/>
<path d="M5 18.75C5.27614 18.75 5.5 18.4702 5.5 18.125C5.5 17.7798 5.27614 17.5 5 17.5C4.72386 17.5 4.5 17.7798 4.5 18.125C4.5 18.4702 4.72386 18.75 5 18.75Z" fill="black"/>
<path d="M7 18.75C7.27614 18.75 7.5 18.4702 7.5 18.125C7.5 17.7798 7.27614 17.5 7 17.5C6.72386 17.5 6.5 17.7798 6.5 18.125C6.5 18.4702 6.72386 18.75 7 18.75Z" fill="black"/>
<path d="M9 18.75C9.27614 18.75 9.5 18.4702 9.5 18.125C9.5 17.7798 9.27614 17.5 9 17.5C8.72386 17.5 8.5 17.7798 8.5 18.125C8.5 18.4702 8.72386 18.75 9 18.75Z" fill="black"/>
</svg>
