<svg width="30" height="30" viewBox="0 0 30 30" fill="none" xmlns="http://www.w3.org/2000/svg">
<path d="M7.02284 30H5.436C5.12506 30 4.86773 29.7072 4.83556 29.3345L4.54607 26.047C4.52463 25.834 4.57824 25.6211 4.69618 25.4747C4.81412 25.315 4.97495 25.2218 5.1465 25.2218H7.31234C7.48389 25.2218 7.64471 25.315 7.76265 25.4747C7.88059 25.6344 7.93421 25.8474 7.91276 26.047L7.62327 29.3345C7.5911 29.7072 7.33378 30 7.02284 30ZM5.97209 28.5093H6.48675L6.64757 26.7125H5.82198L5.97209 28.5093Z" fill="black"/>
<path d="M21.4439 16.6903H8.55609V18.181H21.4439V16.6903Z" fill="black"/>
<path d="M7.58044 11.1402H6.37958V2.71517C6.37958 1.22449 7.35527 0 8.56685 0H21.4546C22.6555 0 23.6419 1.21118 23.6419 2.71517V11.1269H22.441V2.71517C22.441 2.03638 22.0014 1.49068 21.4546 1.49068H8.55613C8.00931 1.49068 7.56971 2.03638 7.56971 2.71517V11.1402H7.58044Z" fill="black"/>
<path d="M8.65261 26.7125H3.84917C3.51679 26.7125 3.24875 26.3798 3.24875 25.9672L3.23803 19.6584C3.23803 18.913 3.19514 18.1544 3.12008 17.409C1.30807 16.9299 0 14.9734 0 12.6176C0 9.9157 1.76912 7.7063 3.95639 7.7063C6.56183 7.7063 7.85919 11.606 7.95568 11.9255C8.81344 14.4144 9.25304 17.0497 9.25304 19.7516V25.9672C9.25304 26.3798 8.98499 26.7125 8.65261 26.7125ZM4.44961 25.2218H8.0629V19.7516C8.0629 17.2493 7.65547 14.8004 6.86204 12.4978C6.86204 12.4845 6.86204 12.4845 6.85132 12.4712C6.8406 12.4445 5.78985 9.19698 3.96712 9.19698C2.4446 9.19698 1.21158 10.7276 1.21158 12.6176C1.21158 14.4011 2.28378 15.8651 3.72052 16.0248C3.99929 16.0515 4.21373 16.3177 4.25661 16.6504C4.38528 17.6486 4.44961 18.6602 4.44961 19.6584V25.2218Z" fill="black"/>
<path d="M22.9771 30C22.6662 30 22.4089 29.7072 22.3767 29.3345L22.0872 26.047C22.0658 25.834 22.1194 25.6211 22.2373 25.4747C22.3553 25.315 22.5161 25.2218 22.6876 25.2218H24.8535C25.025 25.2218 25.1858 25.315 25.3038 25.4747C25.4217 25.6344 25.4753 25.8474 25.4539 26.047L25.1644 29.3345C25.1322 29.7072 24.8749 30 24.564 30H22.9771ZM23.3631 26.7125L23.5239 28.5093H24.0386L24.1994 26.7125H23.3631Z" fill="black"/>
<path d="M21.3474 26.7125C21.015 26.7125 20.7469 26.3798 20.7469 25.9672V19.7516C20.7469 17.0497 21.1865 14.4144 22.0443 11.9255C22.1408 11.6193 23.4382 7.7063 26.0436 7.7063C28.2201 7.7063 30 9.90239 30 12.6176C30 14.9734 28.6919 16.9432 26.8799 17.4224C26.8048 18.1677 26.762 18.9264 26.762 19.6717L26.7512 25.9805C26.7512 26.3931 26.4832 26.7258 26.1508 26.7258L21.3474 26.7125ZM26.0436 9.19698C24.2101 9.19698 23.1701 12.4445 23.1594 12.4712C23.1594 12.4845 23.1594 12.4845 23.1487 12.4978C22.3552 14.8004 21.9478 17.236 21.9478 19.7516V25.2218H25.5611L25.5718 19.6584C25.5718 18.6602 25.6362 17.6353 25.7648 16.6504C25.8077 16.3177 26.0329 16.0515 26.3009 16.0248C27.7269 15.8651 28.8099 14.4011 28.8099 12.6176C28.7991 10.7276 27.5661 9.19698 26.0436 9.19698Z" fill="black"/>
<path d="M21.3474 25.2218H8.65259V26.7125H21.3474V25.2218Z" fill="black"/>
</svg>
