<svg width="24" height="24" viewBox="0 0 24 24" fill="none" xmlns="http://www.w3.org/2000/svg">
<path d="M20.6424 11.0707C20.8724 11.3256 20.9998 11.6567 20.9998 12.0001C20.9998 12.3435 20.8724 12.6747 20.6424 12.9296C19.1858 14.4971 15.8703 17.5491 11.9999 17.5491C8.1295 17.5491 4.81401 14.4971 3.35741 12.9296C3.12735 12.6747 3 12.3435 3 12.0001C3 11.6567 3.12735 11.3256 3.35741 11.0707C4.81401 9.50309 8.1295 6.45117 11.9999 6.45117C15.8703 6.45117 19.1858 9.50309 20.6424 11.0707Z" stroke="#00336A" stroke-linecap="round" stroke-linejoin="round"/>
<path d="M12.0001 14.7745C13.5324 14.7745 14.7745 13.5324 14.7745 12.0001C14.7745 10.4678 13.5324 9.22559 12.0001 9.22559C10.4678 9.22559 9.22559 10.4678 9.22559 12.0001C9.22559 13.5324 10.4678 14.7745 12.0001 14.7745Z" stroke="#00336A" stroke-width="1.5" stroke-linecap="round" stroke-linejoin="round"/>
</svg>
